<?xml version="1.0" encoding="utf-8"?>
<!-- Generator: Adobe Illustrator 23.0.1, SVG Export Plug-In . SVG Version: 6.00 Build 0)  -->
<svg version="1.1" id="Layer_1" xmlns="http://www.w3.org/2000/svg" xmlns:xlink="http://www.w3.org/1999/xlink" x="0px" y="0px"
	 width="14px" height="16px" viewBox="0 0 14 16" style="enable-background:new 0 0 14 16;" xml:space="preserve">
<style type="text/css">
	.st0{fill:#E8B2A5;}
</style>
<path class="st0" d="M4.6430664,14.9990234c-0.3945313-0.0058594-0.7495117-0.2207031-0.934082-0.5625l-1.7099609-3.0507813
	c-0.2587891-0.4648438-0.1508789-1.0498047,0.2553711-1.3916016l0.8388672-0.6845703l-2.0009766-5.199707
	c-0.1318359-0.2822266-0.1464844-0.6328125-0.0273438-0.956543c0.1186523-0.3232422,0.3564453-0.5810547,0.6689453-0.7255859
	c0.1713867-0.0795898,0.3535156-0.1196289,0.5415039-0.1196289c0.5004883,0,0.9604492,0.293457,1.1708984,0.7475586
	l1.9042969,4.9453125L5.7138672,8V2.3120117c-0.0244141-0.690918,0.5317383-1.2875977,1.2397461-1.3129883
	c0.0004883,0,0.0014648,0,0.0019531,0c0.7407227,0,1.3041992,0.5439453,1.3295898,1.2387695V8H8.5V7.125
	C8.4882813,6.8608398,8.5878906,6.5874023,8.78125,6.3764648c0.1943359-0.2114258,0.4589844-0.3344727,0.7460938-0.3461914
	c0,0,0.0009766,0,0.0019531,0c0.6210938,0,1.0898438,0.4511719,1.1132813,1.0268555V8h0.2148438
	c-0.0117188-0.2641602,0.0878906-0.5380859,0.28125-0.7490234c0.1943359-0.2109375,0.4580078-0.3339844,0.7451172-0.3457031
	c0,0,0.0009766,0,0.0019531,0c0.6191406,0,1.0888672,0.4501953,1.1142578,1.0253906v2.2558594
	c0,0.0791016-0.0087891,0.1582031-0.0263672,0.2431641l-0.859375,3.7265625
	c-0.1025391,0.4873047-0.5302734,0.8369141-1.0371094,0.8427734h-0.0029297H4.6430664z"/>
</svg>
