<?xml version="1.0" encoding="UTF-8" standalone="no"?> <svg xmlns="http://www.w3.org/2000/svg" width="16" height="16" viewBox="0 0 16 16" fill="#ff0000">
  <path id="hand-spock-emoji" d="M.66,11.931l4.034,3.8A1,1,0,0,0,5.379,16H12.8a1,1,0,0,0,.959-.716l.994-3.354a3.624,3.624,0,0,0,.15-1.03V9.75a1.628,1.628,0,0,1,.044-.376L15.942,5.2a2.1,2.1,0,0,0-2.048-2.579,2.094,2.094,0,0,0-4.1-.164L9.269,5.751,8.592,1.626a2.094,2.094,0,0,0-4.131.344,2.094,2.094,0,0,0-2,2.558l.97,4.266A2.094,2.094,0,0,0,.66,11.931Zm1-1.932h0A.594.594,0,0,1,2.5,9.974l1.657,1.559A.5.5,0,0,0,5,11.169V9a.5.5,0,0,0-.012-.111L3.921,4.195a.594.594,0,0,1,1.158-.263l.95,4.18a.5.5,0,0,0,.488.389h.269a.5.5,0,0,0,.487-.612l-1.3-5.661A.594.594,0,0,1,7.13,1.962L8.543,8.113A.5.5,0,0,0,9.03,8.5h.413a.5.5,0,0,0,.485-.379l1.324-5.3a.594.594,0,0,1,1.152.288L11.213,7.879A.5.5,0,0,0,11.7,8.5H12a.5.5,0,0,0,.486-.384l.841-3.535a.594.594,0,0,1,1.155.275l-.992,4.169a3.128,3.128,0,0,0-.085.724V10.9a2.123,2.123,0,0,1-.088.6l-.888,3H5.577l-3.89-3.661A.594.594,0,0,1,1.662,10Z" transform="translate(0 -0.001)"/>
</svg>
