<?xml version="1.0" encoding="UTF-8" standalone="no"?> <svg xmlns="http://www.w3.org/2000/svg" width="18" height="14" viewBox="0 0 18 14" fill="#ff0000">
  <path id="hand-lizard-emoji" d="M17.4,40.079l-4.574-7.054A2.242,2.242,0,0,0,10.935,32H1.75A1.752,1.752,0,0,0,0,33.75V34a2.5,2.5,0,0,0,2.5,2.5H8.626L8.053,38H4.5a2.753,2.753,0,0,0-2.75,2.75A1.752,1.752,0,0,0,3.5,42.5H7.611a.747.747,0,0,1,.272.051L11,43.763V46h7V42.12A3.742,3.742,0,0,0,17.4,40.079ZM16.5,44.5h-4v-.737a1.491,1.491,0,0,0-.956-1.4L8.426,41.153A2.242,2.242,0,0,0,7.611,41H3.5a.25.25,0,0,1-.25-.25A1.251,1.251,0,0,1,4.5,39.5H8.053a1.508,1.508,0,0,0,1.4-.965l.767-2.009A1.126,1.126,0,0,0,9.171,35H2.5a1,1,0,0,1-1-1v-.25a.25.25,0,0,1,.25-.25h9.185a.747.747,0,0,1,.629.342L16.138,40.9A2.245,2.245,0,0,1,16.5,42.12Z" transform="translate(0 -32)"/>
</svg>
