<?xml version="1.0" encoding="utf-8"?>
<!-- Generator: Adobe Illustrator 23.0.1, SVG Export Plug-In . SVG Version: 6.00 Build 0)  -->
<svg version="1.1" id="Layer_1" xmlns="http://www.w3.org/2000/svg" xmlns:xlink="http://www.w3.org/1999/xlink" x="0px" y="0px"
	 width="18px" height="14px" viewBox="0 0 18 14" style="enable-background:new 0 0 18 14;" xml:space="preserve">
<style type="text/css">
	.st0{fill:#E8B2A5;}
</style>
<path class="st0" d="M18,10.1199951V14h-7v-2.2399902l-3.1199951-1.210022C7.7999878,10.5200195,7.7000122,10.5,7.6099854,10.5H3.5
	c-0.9699707,0-1.75-0.7800293-1.75-1.75C1.75,7.2299805,2.9799805,6,4.5,6h3.5499878l0.5800171-1.5H2.5
	C1.1199951,4.5,0,3.3800049,0,2V1.75C0,0.7800293,0.7800293,0,1.75,0h9.1900024
	c0.7600098,0,1.4699707,0.3800049,1.8900146,1.0200195l4.5700073,7.0599976C17.789978,8.6900024,18,9.4000244,18,10.1199951z"/>
</svg>
