<?xml version="1.0" encoding="utf-8"?>
<!-- Generator: Adobe Illustrator 23.0.1, SVG Export Plug-In . SVG Version: 6.00 Build 0)  -->
<svg version="1.1" id="Layer_1" xmlns="http://www.w3.org/2000/svg" xmlns:xlink="http://www.w3.org/1999/xlink" x="0px" y="0px"
	 width="16px" height="16px" viewBox="0 0 16 16" style="enable-background:new 0 0 16 16;" xml:space="preserve">
<style type="text/css">
	.st0{fill:#E8B2A5;}
</style>
<path class="st0" d="M5.3789063,14.9990234l-4.034668-3.796875c-0.2124023-0.2001953-0.3344727-0.4716797-0.3432617-0.7636719
	c-0.0019531-0.0693359,0.0024414-0.1376953,0.0131836-0.2041016l0.28125-0.578125
	c0.2060547-0.2197266,0.4960938-0.3447266,0.796875-0.3447266c0.2797852,0,0.5458984,0.1054688,0.75,0.296875L4.5,11.1679688
	V8.9990234L3.4331055,4.3046875c-0.1186523-0.605957,0.2680664-1.1821289,0.859375-1.2988281
	c0.0712891-0.0136719,0.1420898-0.0205078,0.2114258-0.0205078c0.4990234,0,0.9345703,0.3374023,1.0595703,0.8208008L6.5166016,8
	h0.2695313l-1.300293-5.6611328C5.4272461,2.0336914,5.4873047,1.7426758,5.6513672,1.5009766
	s0.4125977-0.4052734,0.699707-0.4599609C6.4199219,1.027832,6.4892578,1.0214844,6.5571289,1.0214844
	c0.4936523,0,0.9277344,0.3330078,1.0556641,0.8100586L9.0302734,8l0.4130859-0.0009766l1.3232422-5.300293
	c0.1367188-0.4838867,0.5693359-0.8115234,1.0566406-0.8115234c0.1005859,0,0.2001953,0.0136719,0.296875,0.0410156
	c0.5556641,0.1572266,0.8945313,0.7216797,0.7724609,1.2856445l-1.1943359,4.7851563H12l0.8408203-3.534668
	c0.1347656-0.4902344,0.5683594-0.8212891,1.0585938-0.8212891c0.0986328,0,0.1962891,0.0131836,0.2910156,0.0395508
	c0.5517578,0.1523438,0.8945313,0.7104492,0.7822266,1.2709961L13.9765625,9.140625
	c-0.046875,0.1972656-0.0712891,0.4013672-0.0712891,0.6074219v1.1513672
	c-0.0009766,0.2539063-0.0380859,0.5029297-0.1083984,0.7421875l-0.9951172,3.3574219H5.3789063z"/>
</svg>
